<?xml version="1.0" encoding="UTF-8"?>
<!DOCTYPE svg PUBLIC "-//W3C//DTD SVG 1.1//EN" "http://www.w3.org/Graphics/SVG/1.1/DTD/svg11.dtd">
<!-- Creator: CorelDRAW X6 -->
<svg xmlns="http://www.w3.org/2000/svg" xml:space="preserve" width="7.08333in" height="2.48333in" version="1.1" style="shape-rendering:geometricPrecision; text-rendering:geometricPrecision; image-rendering:optimizeQuality; fill-rule:evenodd; clip-rule:evenodd"
viewBox="0 0 7083 2483"
 xmlns:xlink="http://www.w3.org/1999/xlink">
 <defs>
  <style type="text/css">
   <![CDATA[
    .str0 {stroke:#2B2A29;stroke-width:6.94488}
    .fil1 {fill:#008316}
    .fil0 {fill:#2B2A29;fill-rule:nonzero}
    .fil2 {fill:white;fill-rule:nonzero}
   ]]>
  </style>
 </defs>
 <g id="Layer_x0020_1">
  <metadata id="CorelCorpID_0Corel-Layer"/>
  <g id="_593412160">
   <path class="fil0" d="M5990 1917c-6,3 -12,5 -17,6 -5,2 -11,2 -17,2 -11,0 -20,-2 -26,-7 -7,-5 -11,-13 -13,-23l-1 0c-9,10 -19,18 -30,23 -10,6 -23,8 -38,8 -15,0 -28,-4 -38,-14 -10,-9 -15,-22 -15,-37 0,-8 1,-16 3,-22 3,-6 6,-12 10,-17 4,-4 9,-8 14,-11 6,-4 12,-6 17,-8 6,-3 19,-7 38,-14 19,-6 32,-11 39,-15l0 -21c0,-1 0,-5 -1,-10 -1,-5 -2,-10 -5,-15 -3,-5 -7,-10 -12,-14 -5,-3 -12,-5 -22,-5 -6,0 -12,1 -18,3 -5,2 -9,4 -11,7 0,3 0,7 2,12 1,6 2,11 2,15 0,5 -3,10 -7,14 -5,4 -11,6 -19,6 -7,0 -12,-2 -15,-7 -3,-5 -5,-11 -5,-17 0,-7 2,-13 7,-19 4,-6 10,-11 18,-16 6,-4 14,-7 23,-10 9,-2 17,-4 26,-4 12,0 22,1 31,3 9,1 17,5 24,10 7,5 13,12 16,21 4,9 6,21 6,35 0,20 0,38 -1,53 0,16 0,33 0,51 0,6 1,10 2,13 2,4 5,6 9,9 2,1 6,2 10,2 5,0 10,0 14,0l0 13zm-73 -111c-12,3 -23,7 -32,10 -9,4 -17,8 -25,13 -7,5 -13,10 -17,17 -4,6 -6,14 -6,23 0,12 3,21 9,26 7,6 14,8 24,8 10,0 19,-2 26,-7 8,-5 14,-11 19,-17l2 -73zm253 -66c0,7 -2,13 -5,19 -4,6 -9,8 -16,8 -8,0 -14,-2 -18,-6 -4,-4 -7,-8 -7,-13 0,-3 1,-6 1,-9 1,-2 1,-5 2,-7 -7,0 -15,2 -24,8 -9,5 -16,13 -22,23l0 121c0,5 1,9 3,12 2,3 5,5 9,7 3,1 8,2 13,3 6,1 11,1 15,1l0 14 -110 0 0 -14c3,0 6,0 10,-1 3,0 6,0 9,-1 4,-2 7,-4 9,-7 2,-3 3,-7 3,-12l0 -129c0,-4 -1,-8 -4,-13 -2,-4 -4,-7 -8,-10 -3,-1 -6,-3 -10,-3 -3,-1 -7,-2 -11,-2l0 -14 69 -4 3 3 0 29 1 0c9,-12 18,-20 29,-26 11,-6 20,-9 29,-9 9,0 16,3 22,9 5,5 8,13 8,23zm119 181l-101 0 0 -14c4,0 7,0 10,-1 4,0 7,0 9,-1 4,-2 7,-4 9,-7 2,-3 3,-7 3,-12l0 -129c0,-4 -1,-8 -3,-12 -2,-4 -5,-7 -9,-9 -2,-2 -6,-4 -11,-5 -5,-1 -10,-2 -14,-2l0 -14 73 -4 3 3 0 169c0,5 1,9 3,12 2,4 5,6 9,8 3,1 6,2 9,3 3,0 6,1 10,1l0 14zm-27 -292c0,8 -2,15 -7,20 -6,6 -12,10 -20,10 -7,0 -13,-3 -19,-9 -5,-6 -8,-12 -8,-20 0,-7 3,-14 8,-20 6,-6 12,-8 19,-8 8,0 15,2 20,8 5,5 7,11 7,19zm250 288c-7,3 -13,5 -18,6 -5,2 -10,2 -17,2 -11,0 -19,-2 -26,-7 -6,-5 -11,-13 -12,-23l-2 0c-9,10 -19,18 -29,23 -11,6 -23,8 -38,8 -16,0 -28,-4 -39,-14 -10,-9 -15,-22 -15,-37 0,-8 1,-16 4,-22 2,-6 5,-12 10,-17 3,-4 8,-8 14,-11 5,-4 11,-6 16,-8 6,-3 19,-7 38,-14 20,-6 33,-11 40,-15l0 -21c0,-1 -1,-5 -1,-10 -1,-5 -3,-10 -5,-15 -3,-5 -7,-10 -12,-14 -6,-3 -13,-5 -22,-5 -7,0 -13,1 -18,3 -6,2 -10,4 -12,7 0,3 1,7 2,12 1,6 2,11 2,15 0,5 -2,10 -7,14 -4,4 -10,6 -18,6 -7,0 -12,-2 -16,-7 -3,-5 -5,-11 -5,-17 0,-7 3,-13 7,-19 5,-6 11,-11 18,-16 6,-4 14,-7 23,-10 9,-2 18,-4 26,-4 12,0 23,1 31,3 9,1 17,5 24,10 8,5 13,12 17,21 3,9 5,21 5,35 0,20 0,38 0,53 -1,16 -1,33 -1,51 0,6 1,10 3,13 2,4 5,6 9,9 2,1 5,2 10,2 4,0 9,0 14,0l0 13zm-74 -111c-12,3 -22,7 -31,10 -9,4 -18,8 -25,13 -8,5 -13,10 -17,17 -4,6 -6,14 -6,23 0,12 3,21 9,26 6,6 14,8 23,8 10,0 19,-2 27,-7 7,-5 14,-11 19,-17l1 -73zm195 115l-100 0 0 -14c3,0 6,0 10,-1 3,0 6,0 9,-1 4,-2 7,-4 9,-7 1,-3 2,-7 2,-12l0 -129c0,-4 -1,-8 -3,-12 -2,-4 -5,-7 -8,-9 -3,-2 -7,-4 -12,-5 -5,-1 -9,-2 -14,-2l0 -14 74 -4 3 3 0 169c0,5 1,9 3,12 1,4 4,6 9,8 3,1 6,2 9,3 3,0 6,1 9,1l0 14zm-26 -292c0,8 -3,15 -8,20 -5,6 -12,10 -20,10 -7,0 -13,-3 -18,-9 -5,-6 -8,-12 -8,-20 0,-7 3,-14 8,-20 5,-6 11,-8 18,-8 8,0 15,2 20,8 5,5 8,11 8,19zm189 190c6,5 11,11 14,18 3,6 4,14 4,24 0,19 -7,35 -21,47 -15,13 -33,19 -56,19 -12,0 -24,-2 -34,-7 -10,-4 -17,-8 -22,-12l-4 14 -16 0 -2 -73 15 0c1,6 3,12 7,20 4,7 8,14 13,20 6,6 12,11 20,15 8,4 16,6 26,6 13,0 24,-3 31,-9 7,-6 11,-15 11,-26 0,-6 -1,-11 -3,-15 -3,-5 -6,-8 -11,-12 -4,-3 -10,-6 -17,-8 -7,-3 -14,-6 -22,-8 -7,-2 -14,-5 -22,-8 -9,-4 -15,-8 -21,-12 -6,-5 -11,-11 -15,-18 -4,-8 -6,-16 -6,-26 0,-17 6,-31 19,-43 12,-12 29,-18 51,-18 8,0 16,1 25,3 8,3 15,5 20,8l5 -11 15 0 4 67 -15 0c-3,-15 -9,-27 -19,-36 -10,-10 -22,-15 -36,-15 -11,0 -20,3 -27,9 -7,6 -10,13 -10,21 0,6 1,12 3,16 2,4 6,8 10,11 4,2 10,5 16,8 6,2 14,5 24,8 9,3 18,6 26,10 8,4 15,9 20,13z"/>
   <path class="fil0" d="M2982 970c15,17 27,37 35,58 7,20 11,45 11,72 0,66 -25,121 -73,164 -49,42 -109,64 -182,64 -33,0 -66,-6 -100,-16 -33,-10 -62,-23 -86,-38l-22 39 -43 0 -7 -256 43 0c9,32 19,60 30,86 12,25 28,49 47,71 18,21 40,37 64,50 24,12 53,18 85,18 24,0 45,-3 63,-10 18,-6 33,-15 44,-26 11,-12 20,-26 25,-41 6,-16 8,-34 8,-54 0,-30 -8,-58 -25,-83 -17,-26 -42,-46 -75,-59 -23,-9 -49,-19 -78,-30 -30,-11 -55,-22 -77,-32 -42,-19 -75,-43 -98,-74 -23,-31 -35,-71 -35,-120 0,-29 6,-55 17,-80 12,-24 29,-46 50,-65 20,-19 44,-33 72,-43 28,-11 57,-16 87,-16 34,0 65,5 92,16 27,10 52,23 74,37l22 -36 42 0 4 248 -42 0c-8,-29 -17,-56 -26,-82 -10,-26 -23,-49 -38,-70 -15,-20 -33,-37 -55,-49 -22,-12 -49,-18 -80,-18 -33,0 -62,11 -85,32 -24,22 -36,48 -36,78 0,33 8,59 23,81 15,21 37,38 66,52 25,12 51,23 75,32 25,9 49,18 72,28 21,10 41,20 61,31 19,12 36,26 51,41zm586 220c-21,42 -50,75 -87,99 -36,25 -78,37 -125,37 -42,0 -79,-7 -110,-22 -32,-15 -57,-35 -78,-60 -20,-25 -35,-55 -45,-88 -10,-34 -15,-70 -15,-107 0,-34 5,-67 16,-99 11,-33 26,-62 47,-88 20,-25 45,-45 74,-60 30,-15 63,-23 100,-23 38,0 70,6 97,18 27,12 49,28 66,49 16,20 28,43 36,69 8,27 12,56 12,87l0 35 -344 0c0,34 4,65 10,92 7,28 17,52 31,74 14,20 31,36 54,48 22,11 48,17 78,17 32,0 59,-7 81,-22 23,-14 45,-40 66,-78l36 22zm-116 -197c0,-20 -1,-41 -5,-64 -3,-22 -8,-41 -16,-56 -8,-16 -19,-29 -33,-39 -14,-10 -32,-15 -54,-15 -37,0 -67,15 -92,45 -24,31 -37,74 -40,129l240 0zm573 -132c0,17 -4,33 -13,47 -8,14 -22,21 -40,21 -20,0 -35,-5 -45,-15 -11,-10 -16,-22 -16,-34 0,-8 1,-15 2,-21 1,-6 3,-13 3,-19 -16,0 -35,7 -57,20 -22,13 -41,32 -57,57l0 302c0,12 3,22 7,30 5,7 13,13 23,17 9,4 20,6 34,8 14,2 26,3 36,4l0 34 -274 0 0 -34c8,-1 17,-2 25,-2 9,-1 16,-3 23,-5 9,-3 17,-8 21,-16 5,-8 8,-18 8,-31l0 -320c0,-11 -3,-22 -8,-32 -5,-11 -12,-19 -21,-26 -7,-4 -15,-7 -24,-9 -9,-2 -19,-3 -29,-4l0 -34 172 -12 7 8 0 73 3 0c22,-28 46,-50 73,-65 26,-14 51,-22 73,-22 22,0 40,7 54,22 13,14 20,33 20,58zm557 -35c-16,3 -31,8 -45,17 -14,9 -27,24 -37,46 -20,46 -42,95 -64,147 -22,51 -45,104 -69,160 -7,16 -14,35 -22,57 -8,23 -15,44 -22,64l-41 0c-33,-82 -64,-157 -92,-225 -28,-68 -57,-138 -87,-209 -7,-16 -19,-28 -34,-37 -16,-9 -32,-15 -47,-17l0 -35 239 0 0 37c-10,0 -23,2 -39,6 -16,4 -24,10 -24,17 0,1 1,3 3,8 2,4 4,9 5,15 15,36 35,86 61,150 27,64 48,116 65,155 12,-30 28,-68 47,-113 19,-45 40,-95 62,-150 3,-9 7,-18 10,-27 3,-8 5,-16 5,-25 0,-6 -3,-11 -9,-16 -6,-4 -13,-8 -21,-12 -8,-3 -16,-6 -24,-8 -7,-2 -14,-3 -18,-3l0 -34 198 0 0 32zm483 364c-22,42 -51,75 -87,99 -37,25 -79,37 -126,37 -42,0 -78,-7 -110,-22 -31,-15 -57,-35 -77,-60 -20,-25 -36,-55 -46,-88 -10,-34 -15,-70 -15,-107 0,-34 6,-67 16,-99 11,-33 27,-62 48,-88 19,-25 44,-45 74,-60 29,-15 63,-23 100,-23 37,0 70,6 97,18 27,12 49,28 65,49 17,20 29,43 37,69 7,27 11,56 11,87l0 35 -343 0c0,34 3,65 10,92 6,28 16,52 31,74 13,20 31,36 53,48 22,11 49,17 79,17 31,0 58,-7 81,-22 22,-14 44,-40 65,-78l37 22zm-116 -197c0,-20 -2,-41 -5,-64 -4,-22 -9,-41 -16,-56 -8,-16 -19,-29 -33,-39 -14,-10 -32,-15 -55,-15 -36,0 -67,15 -91,45 -25,31 -38,74 -40,129l240 0zm419 319l-253 0 0 -34c8,-1 17,-2 26,-3 9,-1 16,-2 22,-4 10,-3 18,-8 22,-16 5,-8 8,-18 8,-31l0 -601c0,-12 -3,-24 -8,-35 -6,-11 -13,-20 -22,-26 -6,-4 -18,-8 -34,-12 -17,-3 -31,-5 -41,-6l0 -34 195 -12 8 8 0 712c0,12 2,22 6,30 5,8 12,14 23,18 7,4 15,6 22,8 8,2 16,3 26,4l0 34zm570 -264c0,36 -5,72 -17,107 -11,36 -28,65 -49,90 -24,28 -53,49 -84,63 -32,13 -68,20 -108,20 -33,0 -64,-6 -94,-19 -30,-12 -56,-30 -79,-54 -23,-23 -41,-52 -55,-86 -13,-34 -20,-72 -20,-114 0,-81 24,-147 71,-199 47,-51 109,-77 185,-77 73,0 133,25 180,73 47,49 70,114 70,196zm-108 1c0,-26 -3,-54 -8,-83 -5,-30 -13,-54 -24,-75 -11,-22 -26,-39 -44,-52 -18,-13 -41,-20 -67,-20 -27,0 -50,7 -69,20 -19,13 -35,32 -47,55 -11,21 -19,46 -23,73 -5,27 -7,54 -7,79 0,34 3,65 8,94 6,28 14,54 26,76 12,23 27,40 45,53 18,13 41,19 67,19 44,0 79,-21 104,-63 26,-43 39,-101 39,-176zm373 232c0,38 -6,75 -17,108 -12,34 -27,62 -45,84 -20,24 -43,42 -68,54 -25,13 -52,19 -82,19 -32,0 -55,-6 -71,-19 -16,-12 -24,-27 -24,-44 0,-15 5,-28 13,-39 8,-12 21,-17 37,-17 11,0 20,2 29,6 8,5 16,11 22,18 5,7 11,14 17,24 6,9 11,18 17,27 26,0 45,-16 57,-49 11,-32 17,-84 17,-155l0 -390c0,-11 -3,-22 -9,-32 -5,-11 -12,-19 -21,-25 -5,-4 -19,-8 -40,-12 -21,-4 -37,-6 -48,-7l0 -33 208 -12 8 8 0 486zm7 -699c0,20 -6,38 -19,53 -13,15 -30,22 -49,22 -18,0 -33,-7 -46,-21 -14,-14 -20,-31 -20,-49 0,-19 6,-36 20,-50 13,-15 28,-22 46,-22 20,0 36,7 49,20 13,14 19,30 19,47zm609 721c-16,6 -31,11 -43,14 -12,4 -26,6 -42,6 -28,0 -49,-7 -66,-19 -16,-13 -27,-32 -31,-56l-3 0c-23,25 -47,44 -74,58 -26,13 -57,19 -94,19 -39,0 -71,-11 -96,-35 -25,-24 -38,-55 -38,-94 0,-20 3,-38 9,-53 6,-16 14,-30 25,-43 9,-11 20,-20 35,-28 14,-8 28,-15 40,-20 16,-6 48,-17 96,-33 48,-16 81,-29 98,-38l0 -52c0,-5 -1,-13 -3,-26 -2,-13 -6,-26 -12,-37 -7,-13 -17,-24 -30,-34 -13,-10 -31,-15 -55,-15 -16,0 -31,3 -45,9 -13,5 -23,11 -29,17 0,7 2,17 5,31 4,13 5,26 5,38 0,12 -5,23 -16,33 -11,10 -27,16 -46,16 -18,0 -31,-7 -39,-19 -8,-13 -12,-27 -12,-42 0,-16 5,-32 17,-46 11,-15 26,-28 44,-40 16,-9 35,-18 57,-25 23,-7 45,-10 66,-10 30,0 55,2 77,6 22,4 42,13 60,26 18,13 31,31 41,53 9,22 14,51 14,86 0,50 -1,95 -2,133 -1,39 -2,81 -2,127 0,14 3,25 8,33 4,8 12,15 21,21 6,3 14,4 25,5 12,0 23,0 35,0l0 34zm-183 -278c-30,9 -56,18 -79,26 -22,8 -43,19 -62,32 -18,11 -31,26 -42,42 -10,16 -15,35 -15,58 0,29 8,51 23,64 15,14 35,21 58,21 25,0 47,-6 66,-18 19,-12 35,-27 48,-43l3 -182z"/>
   <path class="fil0" d="M2726 1784c6,7 11,15 14,23 3,9 4,18 4,29 0,27 -9,49 -29,66 -20,17 -44,26 -73,26 -13,0 -27,-2 -40,-7 -13,-4 -25,-9 -35,-15l-9 16 -17 0 -3 -103 18 0c3,13 7,24 12,34 5,11 11,20 19,29 7,8 16,15 25,20 10,5 21,7 34,7 10,0 19,-1 26,-4 7,-2 13,-6 17,-10 5,-5 8,-10 10,-17 3,-6 4,-13 4,-21 0,-12 -4,-23 -10,-34 -7,-10 -17,-18 -31,-23 -9,-4 -19,-8 -31,-12 -12,-5 -22,-9 -31,-13 -17,-8 -30,-17 -39,-30 -9,-12 -14,-28 -14,-48 0,-11 2,-22 7,-32 5,-10 11,-18 20,-26 8,-8 18,-13 29,-17 11,-5 22,-7 34,-7 14,0 27,2 38,7 10,4 20,9 29,14l9 -14 17 0 2 99 -17 0c-4,-11 -7,-22 -11,-32 -4,-11 -9,-20 -15,-29 -6,-8 -13,-14 -22,-19 -9,-5 -20,-7 -32,-7 -14,0 -25,4 -34,13 -10,8 -15,19 -15,31 0,13 3,24 9,32 7,9 15,16 27,21 10,5 20,9 30,13 10,3 20,7 29,11 8,4 17,8 24,13 8,5 15,10 21,16zm253 31c0,15 -2,29 -7,43 -4,15 -11,27 -20,37 -9,11 -21,19 -33,25 -13,5 -28,8 -43,8 -14,0 -26,-3 -38,-8 -12,-5 -23,-12 -32,-21 -9,-10 -17,-21 -22,-35 -5,-14 -8,-29 -8,-46 0,-32 9,-59 28,-79 19,-21 44,-31 75,-31 29,0 53,9 72,29 19,20 28,46 28,78zm-44 1c0,-11 -1,-22 -3,-34 -2,-11 -5,-21 -9,-30 -5,-8 -11,-15 -18,-21 -7,-5 -16,-7 -27,-7 -11,0 -20,2 -27,8 -8,5 -14,12 -19,22 -5,8 -8,18 -10,29 -1,11 -2,21 -2,32 0,13 1,26 3,37 2,12 6,22 10,31 5,9 11,16 18,21 8,5 17,8 27,8 18,0 32,-9 42,-26 10,-17 15,-40 15,-70zm172 106l-102 0 0 -14c4,-1 7,-1 11,-1 3,-1 6,-1 9,-2 4,-1 7,-3 9,-7 2,-3 3,-7 3,-12l0 -241c0,-5 -2,-10 -4,-14 -2,-5 -5,-8 -8,-11 -3,-1 -7,-3 -14,-4 -7,-2 -12,-2 -16,-3l0 -13 78 -5 3 3 0 286c0,4 1,8 3,12 1,3 4,5 8,7 3,1 7,2 10,3 3,1 6,1 10,2l0 14zm249 -4l-68 4 -3 -3 0 -26 -1 0c-3,4 -7,7 -12,11 -4,4 -9,8 -14,11 -6,4 -13,7 -18,9 -6,2 -15,3 -26,3 -18,0 -32,-6 -42,-18 -9,-12 -14,-30 -14,-53l0 -99c0,-5 -1,-10 -3,-13 -2,-3 -5,-7 -8,-9 -3,-2 -6,-3 -10,-4 -4,-1 -8,-1 -12,-1l0 -14 70 -5 3 3 0 144c0,15 3,27 10,34 7,8 15,12 24,12 8,0 15,-1 21,-4 6,-2 11,-5 15,-8 4,-3 7,-6 10,-10 3,-3 5,-6 7,-9l0 -118c0,-4 -1,-9 -3,-12 -2,-4 -5,-7 -8,-9 -3,-2 -7,-3 -12,-3 -5,-1 -10,-1 -17,-1l0 -14 76 -5 3 3 0 165c0,5 1,9 3,12 2,4 5,7 8,9 3,2 6,3 9,3 4,1 8,1 12,1l0 14zm107 8c-25,-3 -45,-14 -60,-34 -14,-20 -21,-45 -21,-75 0,-15 2,-29 6,-41 5,-13 12,-25 20,-35 9,-10 19,-18 32,-24 12,-6 26,-9 41,-9 20,0 37,4 49,14 13,10 20,23 20,40 0,7 -2,13 -5,19 -4,5 -9,8 -17,8 -8,0 -15,-2 -19,-6 -5,-5 -7,-9 -7,-14 0,-7 1,-13 2,-20 2,-7 3,-12 3,-15 -2,-4 -6,-7 -11,-8 -5,-2 -11,-3 -16,-3 -7,0 -13,2 -20,5 -6,3 -12,8 -17,16 -6,7 -10,16 -13,28 -3,12 -5,26 -5,43 0,26 6,47 17,64 12,17 27,25 46,25 14,0 25,-4 34,-10 10,-7 18,-17 26,-30l14 9c-9,16 -21,29 -36,39 -15,10 -30,15 -46,15l0 15c6,0 12,1 17,2 5,0 10,2 15,5 5,2 9,5 12,9 3,5 4,10 4,16 0,8 -2,15 -6,21 -5,5 -11,10 -19,13 -8,2 -16,4 -26,6 -9,1 -20,1 -33,1l0 -15c6,0 12,0 19,0 7,0 13,-1 17,-2 6,-1 10,-3 13,-6 4,-2 5,-6 5,-11 0,-3 -1,-6 -3,-8 -2,-2 -5,-4 -9,-5 -2,-1 -6,-2 -11,-2 -5,-1 -8,-1 -12,-1l0 -39zm318 -111c0,15 -3,29 -7,43 -5,15 -12,27 -20,37 -10,11 -21,19 -34,25 -13,5 -27,8 -43,8 -13,0 -26,-3 -38,-8 -12,-5 -22,-12 -32,-21 -9,-10 -16,-21 -21,-35 -6,-14 -9,-29 -9,-46 0,-32 10,-59 29,-79 19,-21 44,-31 74,-31 29,0 53,9 72,29 19,20 29,46 29,78zm-44 1c0,-11 -1,-22 -3,-34 -2,-11 -5,-21 -10,-30 -4,-8 -10,-15 -17,-21 -8,-5 -17,-7 -27,-7 -11,0 -20,2 -28,8 -8,5 -14,12 -19,22 -4,8 -7,18 -9,29 -2,11 -3,21 -3,32 0,13 1,26 3,37 3,12 6,22 11,31 5,9 11,16 18,21 7,5 16,8 27,8 17,0 31,-9 42,-26 10,-17 15,-40 15,-70zm24 -204c-1,5 -3,11 -6,16 -3,6 -7,12 -12,17 -5,6 -10,10 -16,13 -5,4 -12,5 -20,5 -8,0 -15,-1 -21,-3 -6,-3 -11,-5 -15,-8 -5,-2 -10,-5 -14,-7 -5,-2 -10,-4 -15,-4 -4,0 -8,1 -10,2 -2,1 -4,3 -7,6 -2,2 -4,6 -6,10 -3,4 -5,8 -7,11l-12 -5c1,-5 4,-10 7,-16 4,-7 7,-12 11,-17 4,-5 10,-9 16,-13 6,-4 12,-5 19,-5 7,0 14,1 20,3 6,2 11,5 16,8 5,3 10,5 13,7 4,2 8,3 14,3 5,0 10,0 13,-2 4,-1 6,-3 8,-5 3,-3 5,-6 6,-9 1,-3 3,-7 5,-12l13 5zm235 261c-9,16 -21,29 -35,39 -15,10 -32,15 -51,15 -17,0 -31,-3 -44,-9 -12,-6 -23,-14 -31,-24 -8,-10 -14,-22 -18,-35 -4,-14 -6,-28 -6,-43 0,-14 2,-27 6,-40 5,-13 11,-25 19,-35 8,-10 18,-18 30,-24 12,-6 25,-9 40,-9 15,0 28,2 39,7 11,4 20,11 26,19 7,8 12,18 15,28 3,11 5,23 5,35l0 14 -138 0c0,14 1,26 4,37 2,11 6,21 12,29 6,9 13,15 22,20 8,4 19,7 31,7 13,0 24,-3 33,-9 9,-6 17,-16 26,-32l15 10zm-47 -80c0,-8 -1,-16 -2,-25 -1,-9 -3,-17 -6,-23 -4,-6 -8,-11 -14,-16 -5,-4 -13,-6 -21,-6 -15,0 -27,6 -37,19 -10,12 -15,29 -16,51l96 0zm208 27c6,5 10,10 13,17 4,7 5,15 5,24 0,20 -7,35 -22,48 -14,12 -33,18 -56,18 -12,0 -23,-2 -33,-7 -10,-4 -18,-8 -22,-12l-4 14 -16 0 -2 -72 14 0c2,5 4,12 8,19 3,7 8,14 13,20 5,6 12,11 20,15 7,5 16,7 26,7 13,0 23,-3 31,-9 7,-7 11,-15 11,-27 0,-6 -1,-11 -4,-15 -2,-4 -5,-8 -10,-11 -5,-4 -10,-6 -17,-9 -7,-3 -14,-5 -23,-8 -6,-2 -14,-4 -22,-8 -8,-3 -15,-7 -20,-12 -7,-5 -12,-11 -16,-18 -4,-7 -6,-16 -6,-25 0,-17 7,-32 19,-44 13,-12 30,-17 51,-17 8,0 17,1 25,3 9,2 16,4 21,7l5 -11 15 0 3 67 -14 0c-3,-15 -10,-27 -19,-36 -10,-10 -22,-14 -36,-14 -12,0 -21,3 -27,8 -7,6 -10,13 -10,21 0,7 1,12 3,16 2,4 5,8 10,11 4,3 9,5 16,8 6,2 14,5 23,8 10,3 19,7 27,10 8,4 15,9 20,14zm411 13l-6 89 -248 0 0 -15c4,-1 10,-1 17,-2 7,-1 11,-2 13,-3 5,-2 8,-5 10,-8 1,-4 2,-8 2,-13l0 -215c0,-5 0,-9 -2,-13 -2,-3 -5,-6 -10,-9 -3,-1 -9,-3 -15,-4 -6,-2 -11,-3 -15,-3l0 -15 231 0 0 72 -15 0c-3,-10 -9,-22 -19,-34 -9,-12 -18,-18 -26,-20 -5,0 -10,-1 -16,-1 -6,0 -13,0 -21,0l-47 0 0 119 34 0c11,0 19,-1 24,-3 5,-2 9,-6 13,-11 3,-4 6,-9 8,-16 2,-7 3,-13 4,-19l16 0 0 117 -16 0c0,-7 -2,-14 -4,-22 -3,-7 -5,-12 -8,-16 -4,-5 -9,-9 -15,-11 -5,-1 -13,-2 -22,-2l-34 0 0 90c0,9 1,16 2,21 1,5 4,9 8,12 3,3 8,4 15,5 6,1 15,1 27,1 4,0 10,0 18,0 8,0 14,0 19,-1 5,0 11,-1 17,-3 5,-1 9,-3 12,-6 6,-6 13,-17 20,-30 7,-14 12,-24 14,-31l15 0zm382 89l-102 0 0 -14c3,-1 7,-1 10,-1 3,-1 6,-1 9,-2 4,-1 6,-3 8,-7 2,-3 3,-7 3,-12l0 -107c0,-15 -3,-26 -10,-34 -6,-8 -15,-12 -25,-12 -7,0 -13,1 -19,3 -6,2 -12,5 -17,9 -4,3 -7,6 -10,10 -3,4 -5,6 -6,9l0 120c0,5 1,9 2,12 2,3 5,6 9,7 3,2 6,3 9,3 2,1 6,1 10,2l0 14 -100 0 0 -14c4,-1 7,-1 10,-1 3,-1 6,-1 8,-2 4,-1 7,-3 9,-7 2,-3 3,-7 3,-12l0 -107c0,-15 -4,-26 -10,-34 -7,-8 -15,-12 -25,-12 -7,0 -14,1 -20,3 -6,2 -11,5 -16,9 -4,3 -8,7 -11,11 -2,3 -5,6 -6,8l0 120c0,4 1,8 3,12 2,3 5,5 9,7 3,1 6,2 9,3 3,1 6,1 10,2l0 14 -101 0 0 -14c3,-1 7,-1 10,-1 4,-1 7,-1 9,-2 4,-1 7,-3 9,-7 2,-3 3,-7 3,-12l0 -129c0,-5 -1,-9 -3,-12 -2,-4 -5,-7 -9,-10 -3,-1 -6,-3 -10,-4 -4,-1 -8,-1 -12,-2l0 -13 70 -5 3 3 0 30 1 0c4,-4 8,-8 13,-13 5,-5 10,-9 14,-11 5,-4 11,-7 19,-9 7,-2 15,-3 23,-3 14,0 26,3 35,11 10,7 17,16 21,26 5,-5 10,-9 14,-13 3,-4 9,-8 15,-12 5,-4 12,-7 19,-9 7,-2 15,-3 24,-3 18,0 31,5 42,17 10,12 15,29 15,53l0 106c0,5 1,9 3,12 1,3 4,6 8,7 4,2 7,3 10,3 3,1 7,1 11,2l0 14zm214 -184c8,10 15,21 19,34 5,13 7,28 7,45 0,16 -3,32 -8,45 -6,14 -13,25 -22,35 -9,10 -20,17 -31,22 -12,5 -24,8 -37,8 -13,0 -23,-1 -31,-4 -8,-3 -14,-6 -19,-10l-2 0 0 62c0,5 1,10 3,13 2,3 5,6 9,7 3,2 8,3 14,4 7,1 12,2 16,2l0 14 -116 0 0 -14c4,0 8,-1 12,-1 4,0 8,-1 11,-2 4,-1 7,-4 9,-7 2,-4 3,-8 3,-13l0 -221c0,-5 -1,-9 -4,-13 -2,-3 -4,-7 -8,-9 -2,-2 -6,-3 -10,-4 -5,-1 -9,-1 -13,-2l0 -13 70 -5 3 2 0 24 2 0c7,-8 17,-15 27,-21 11,-5 22,-8 33,-8 13,0 24,2 35,8 11,5 20,13 28,22zm-34 150c5,-9 9,-19 12,-31 3,-11 4,-24 4,-38 0,-11 -1,-21 -3,-32 -3,-11 -6,-20 -11,-28 -5,-9 -11,-15 -19,-20 -7,-5 -17,-8 -28,-8 -10,0 -19,2 -26,7 -7,5 -14,10 -19,16l0 123c1,4 3,8 6,12 3,4 6,8 10,11 4,3 9,6 14,8 5,3 11,4 18,4 8,0 16,-3 23,-7 8,-4 14,-10 19,-17zm250 -148c0,7 -2,14 -5,19 -4,6 -9,9 -16,9 -8,0 -14,-2 -18,-6 -5,-4 -7,-9 -7,-14 0,-3 1,-6 1,-8 1,-3 1,-5 1,-8 -6,0 -14,3 -23,8 -9,5 -16,13 -22,23l0 121c0,5 1,9 2,12 2,3 5,5 9,7 4,1 9,2 14,3 6,1 10,1 14,2l0 14 -109 0 0 -14c3,-1 6,-1 10,-1 3,-1 6,-1 9,-2 4,-1 7,-3 8,-7 2,-3 3,-7 3,-12l0 -128c0,-5 -1,-9 -3,-13 -2,-5 -5,-8 -8,-10 -3,-2 -6,-3 -10,-4 -3,-1 -7,-1 -12,-2l0 -13 70 -5 3 3 0 29 1 0c8,-11 18,-20 29,-26 10,-6 20,-9 29,-9 9,0 16,3 22,9 5,6 8,14 8,23zm203 133c-9,16 -21,29 -35,39 -15,10 -32,15 -51,15 -17,0 -31,-3 -44,-9 -12,-6 -23,-14 -31,-24 -8,-10 -14,-22 -18,-35 -4,-14 -6,-28 -6,-43 0,-14 2,-27 6,-40 5,-13 11,-25 19,-35 8,-10 18,-18 30,-24 12,-6 25,-9 40,-9 15,0 28,2 39,7 11,4 20,11 26,19 7,8 12,18 15,28 3,11 5,23 5,35l0 14 -138 0c0,14 1,26 4,37 2,11 6,21 12,29 6,9 13,15 22,20 8,4 19,7 31,7 13,0 24,-3 33,-9 9,-6 17,-16 26,-32l15 10zm-47 -80c0,-8 -1,-16 -2,-25 -1,-9 -3,-17 -6,-23 -4,-6 -8,-11 -14,-16 -5,-4 -13,-6 -21,-6 -15,0 -27,6 -37,19 -10,12 -15,29 -16,51l96 0zm208 27c6,5 10,10 13,17 4,7 5,15 5,24 0,20 -7,35 -22,48 -14,12 -33,18 -56,18 -12,0 -23,-2 -33,-7 -10,-4 -18,-8 -22,-12l-4 14 -16 0 -2 -72 14 0c2,5 4,12 8,19 3,7 8,14 13,20 5,6 12,11 20,15 7,5 16,7 26,7 13,0 23,-3 31,-9 7,-7 11,-15 11,-27 0,-6 -1,-11 -4,-15 -2,-4 -5,-8 -10,-11 -5,-4 -10,-6 -17,-9 -7,-3 -14,-5 -23,-8 -6,-2 -14,-4 -22,-8 -8,-3 -15,-7 -20,-12 -7,-5 -12,-11 -16,-18 -4,-7 -6,-16 -6,-25 0,-17 7,-32 19,-44 13,-12 30,-17 51,-17 8,0 17,1 25,3 9,2 16,4 21,7l5 -11 15 0 3 67 -14 0c-3,-15 -10,-27 -19,-36 -10,-10 -22,-14 -36,-14 -12,0 -21,3 -27,8 -7,6 -10,13 -10,21 0,7 1,12 3,16 2,4 5,8 10,11 4,3 9,5 16,8 6,2 14,5 23,8 10,3 18,7 27,10 8,4 15,9 20,14z"/>
   <circle class="fil1 str0" cx="1382" cy="1269" r="1042"/>
   <path class="fil2" d="M2196 465c0,14 -2,32 -7,55 -4,23 -13,52 -25,88 -36,109 -81,239 -133,388 -53,149 -113,327 -181,535l-90 0c26,-178 53,-383 81,-616 29,-232 47,-369 55,-409 10,-47 33,-85 68,-113 35,-29 73,-43 116,-43 37,0 65,11 85,32 21,22 31,49 31,83zm-296 1431c0,43 -16,80 -47,111 -31,30 -68,45 -111,45 -44,0 -81,-15 -112,-45 -31,-31 -46,-68 -46,-111 0,-42 15,-80 46,-111 31,-31 68,-46 112,-46 43,0 80,15 111,46 31,31 47,69 47,111z"/>
   <path class="fil2" d="M1125 1851c-73,0 -136,-9 -191,-27 -55,-18 -99,-39 -133,-63l-51 65 -70 0 87 -431 71 0c3,51 10,99 21,144 11,45 29,86 54,122 25,37 57,66 97,87 39,20 88,30 147,30 88,0 159,-24 212,-73 54,-49 80,-116 80,-200 0,-46 -11,-87 -33,-122 -23,-35 -57,-63 -102,-82 -42,-19 -84,-35 -126,-50 -42,-14 -83,-31 -123,-51 -54,-25 -96,-62 -129,-109 -32,-48 -49,-102 -49,-162 0,-57 13,-109 38,-157 25,-48 59,-89 100,-124 40,-34 89,-61 146,-81 57,-20 114,-30 170,-30 53,0 103,6 150,19 47,12 94,35 141,70l49 -61 71 0 -89 419 -72 0c-2,-46 -7,-93 -14,-142 -7,-48 -20,-89 -38,-121 -19,-35 -47,-62 -82,-82 -34,-20 -81,-30 -139,-30 -70,0 -129,25 -176,73 -47,48 -71,105 -71,172 0,43 9,81 26,111 18,31 45,55 82,74 39,21 80,38 123,52 42,15 81,30 114,46 69,32 122,71 160,115 38,46 57,100 57,166 0,62 -13,121 -41,175 -27,55 -63,100 -109,137 -48,39 -101,69 -161,90 -60,21 -125,31 -197,31z"/>
  </g>
 </g>
</svg>
