<svg width="11693" height="2999.9999999999995" xmlns="http://www.w3.org/2000/svg">
 <defs>
  <path id="svg_1" d="m0,0z"/>
  <path id="svg_2" d="m301.999,728.001l-181.998,0l0,-728.001l181.998,0c201.999,0 366.001,162.997 366.001,365.003c0,201.999 -164.003,362.998 -366.001,362.998zm0,-54.0018c171.998,0 311.001,-136.998 311.001,-308.997c0,-172.005 -139.002,-311.001 -311.001,-311.001l-127.997,0l0,619.997l127.997,0l0,0.001z"/>
  <path id="svg_3" d="m669.998,262.998l0,465.003l-53.9948,0l0,-465.003c0,-137.997 -110.001,-223.996 -218.004,-223.996c-138.995,0 -223.996,110.001 -223.996,218.996l0,470.003l-54.0018,0l0,-472.001c0,-135.001 105.999,-271 277.998,-271c135.001,0 271.999,105.999 271.999,277.998l-0.0004,0z"/>
  <path id="svg_4" d="m50.0004,10.9987l49.0018,-22.9959l125.999,269.995l341.001,0l125.999,-269.995l48.9947,22.9959l-344.995,739.998l-346.001,-739.998l0.0005,0zm491.0015,301.001l-291.001,0l145.001,311.999l146,-311.999z"/>
  <path id="svg_5" d="m574.997,496.002c0,112.997 -84.9936,231.999 -231.999,231.999l-222.997,0l0,-728.001l54.0018,0l0,673.999l168.996,0c114.002,0 178.004,-94.0021 178.004,-177.997c0,-117.005 -90.9992,-184.003 -176,-184.003l-146,0l329.995,-330.002l38.0031,38.0031l-254.003,255.002c5.99864,-2.00423 38.0031,-8.00287 63.0033,-8.00287c106.998,0 198.996,103.004 198.996,229.003l-0.0002,-0.00023z"/>
  <path id="svg_6" d="m55.0004,362c0,-199.003 157.997,-380.003 386.001,-380.003c198.996,0 379.996,158.004 379.996,386.001c0,199.003 -157.997,380.003 -385.994,380.003c-199.003,0 -380.003,-158.004 -380.003,-386.001zm712.002,3.00283c0,-197.006 -159.003,-329.004 -326.999,-329.004c-199.003,0 -331.001,160.001 -331.001,326.999c0,199.003 158.995,331.001 326.001,331.001c191,0 332,-149.002 332,-328.997l-0.001,0.001z"/>
  <path id="svg_7" d="m174.003,0l0,728.001l-54.0018,0l0,-728.001l54.0018,0z"/>
  <path id="svg_8" d="m120.001,752.002l0,-752.002l54.0018,0l0,603.999l527.001,-628l0,752.002l-54.0018,0l0,-603.999l-527.001,628z"/>
  <path id="svg_9" d="m393.997,412l-219.995,0l0,261.999l276.001,0l0,54.0018l-330.002,0l0,-728.001l367.998,0l0,54.0018l-313.997,0l0,303.997l219.995,0l0,54.0018l0,-0.0004z"/>
  <path id="svg_10" d="m10.0001,714.998l345.002,-739.998l346.001,739.998l-49.0018,23.003l-296.999,-636.003l-296.001,636.003l-49.0018,-23.003l0.0006,0z"/>
  <path id="svg_11" d="m517.999,205.001c0,87.9964 -41.9975,151.998 -236,202.997c-75.9991,19.0015 -141,54.0018 -141,136c0,100.001 79.002,143.004 144.002,143.004c90.0006,0 146,-65.9991 150.001,-148.004l53.9948,3.00283c-5.00004,109.002 -81.9978,198.996 -204.994,198.996c-81.0062,0 -197.006,-54.9934 -197.006,-198.996c0,-110.999 88.0034,-161.998 181,-186.999c166,-43.0031 196,-85.0006 196,-150.001c0,-80.0006 -66.9977,-173.004 -181.998,-173.004c-64.0019,0 -161,29.0016 -172.997,179.003l-54.0018,-3.00283c15.0001,-192.997 150.001,-229.995 226,-229.995c151,0 236.999,120.999 236.999,226.999z"/>
  <path id="svg_12" d="m174.003,0l0,257.998l171.998,0c117.997,0 228.996,94.0021 228.996,238.004c0,112.997 -84.9936,231.999 -231.999,231.999l-222.997,0l0,-728.001l54.0018,0l0.0002,0zm-0.0002,311.999l0,362l168.996,0c114.002,0 178.004,-94.0021 178.004,-177.997c0,-117.005 -90.9992,-184.003 -176,-184.003l-171,0z"/>
  <path id="svg_13" d="m477.001,326.999l-357,425.003l0,-752.002l54.0018,0l0,603.999l302.998,-361.001l301.999,361.001l0,-603.999l54.0018,0l0,752.002l-356.001,-425.003l0.0004,0z"/>
  <style type="text/css">
   <![CDATA[
    @font-face { font-family:"BonvenoCF";src:url("#FontID0") format(svg)}
    .fil5 {fill:none}
    .fil2 {fill:#0C4727}
    .fil0 {fill:#132B1E}
    .fil4 {fill:white}
    .fil1 {fill:#008316}
    .fil3 {fill:#2B2A29;fill-rule:nonzero}
    .fil6 {fill:white;fill-rule:nonzero}
    .fnt0 {font-weight:200;font-size:559.839px;font-family:'BonvenoCF'}
   ]]>
  </style>
  <clipPath id="id0">
   <path id="svg_14" d="m9441.020248,1887.771261c197,-22 374,122 396,323c22,200 -120,381 -317,403c-197,22 -374,-122 -396,-323c-21,-200 121,-381 317,-403z"/>
  </clipPath>
  <mask id="id1">
   <rect id="svg_15" fill="url(#id2)" height="160" width="555" y="50" x="9387"/>
  </mask>
  <linearGradient y2="27.863563" x2="0.154955" y1="25.419937" x1="0.84391" id="id2">
   <stop offset="0"/>
   <stop stop-opacity="-100.396" offset="0.329412"/>
   <stop stop-opacity="0" offset="1"/>
  </linearGradient>
 </defs>
 <g>
  <title>background</title>
  <rect fill="none" id="canvas_background" height="3002" width="11695" y="-1" x="-1"/>
 </g>
 <g>
  <title>Layer 1</title>
  <g id="Layer_x0020_1">
   <metadata transform="translate(-30.002639770507812,-220.0193634033203) translate(260.02288818359375,-2370.20849609375) translate(0,-10.000879287719727) " id="CorelCorpID_0Corel-Layer"/>
   <g id="_1482581264">
    <text id="svg_16" class="fil0 fnt0" y="934.771261" x="5515.020248">UNIVERSIDADE</text>
    <text id="svg_17" class="fil0 fnt0" y="1673.771261" x="5515.020248">DO EMPREENDEDOR</text>
    <text id="svg_18" class="fil0 fnt0" y="934.771261" x="5515.020248">UNIVERSIDADE</text>
    <text id="svg_19" class="fil0 fnt0" y="1673.771261" x="5515.020248">DO EMPREENDEDOR</text>
   </g>
   <g id="_1482586328">
    <path id="svg_20" d="m986.020248,1035.771261c0,-387 0,-581 0,-581c0,0 -96,0 -288,0c0,514 0,771 0,771c1,31 3,59 8,84c12,62 28,112 50,150c194,-53 291,-80 291,-80c-39,-45 -60,-96 -61,-154c0,-126 0,-190 0,-190z" class="fil1"/>
    <path id="svg_21" d="m1689.020248,1222.771261c-1,-512 -2,-768 -2,-768c0,0 -95,0 -286,0c-1,462 -1,693 -1,693c3,69 -1,118 -11,147c200,-48 300,-72 300,-72z" class="fil1"/>
    <path id="svg_22" d="m1690.020248,1242.771261c0,0 -104,24 -310,73c-61,112 -144,152 -249,121c-23,-8 -45,-22 -68,-42c-200,54 -300,81 -300,81c85,150 216,237 392,259c297,19 511,-203 535,-492z" class="fil2"/>
    <path id="svg_23" d="m1792.020248,1199.771261c0,-496 1,-745 1,-745c196,0 294,0 294,0c208,418 312,627 312,627c-176,33 -264,50 -264,50c-36,-76 -54,-113 -54,-113c0,81 0,121 0,121c-193,40 -289,60 -289,60z" class="fil1"/>
    <path id="svg_24" d="m2080.020248,1734.771261c0,-385 0,-577 0,-577c0,0 -96,21 -288,63c0,343 0,514 0,514c192,0 288,0 288,0z" class="fil2"/>
    <path id="svg_25" d="m2445.020248,1070.771261c0,-411 0,-616 0,-616c192,0 288,0 288,0c1,378 1,567 1,567c-193,32 -289,49 -289,49z" class="fil1"/>
    <path id="svg_26" d="m2441.020248,1734.771261c-198,-392 -297,-588 -297,-588c175,-35 263,-52 263,-52c26,51 38,77 38,77c0,-54 0,-82 0,-82c192,-33 289,-50 289,-50c1,310 1,541 0,695c-195,0 -293,0 -293,0z" class="fil2"/>
    <path id="svg_27" d="m2828.020248,1006.771261c-1,-368 -1,-552 -1,-552c522,0 783,0 783,0c0,194 0,290 0,290c-330,1 -495,2 -495,2c0,136 0,204 0,204c66,0 99,0 99,0c-179,25 -307,43 -386,56z" class="fil1"/>
    <path id="svg_28" d="m2828.020248,1734.771261c0,-473 -1,-710 -1,-710c356,-49 534,-73 534,-73c80,0 119,1 119,1c0,191 0,287 0,287c-242,0 -363,0 -363,0c0,136 -1,204 -1,204c330,1 495,1 495,1c0,167 0,264 0,290c-522,0 -783,0 -783,0z" class="fil2"/>
    <path id="svg_29" d="m3826.020248,584.771261c-78,92 -111,196 -99,310c193,-14 289,-21 289,-21c-9,-45 6,-82 45,-110c37,-23 75,-24 113,-4c35,24 52,55 52,93c192,-2 289,-2 289,-2c-4,-103 -36,-189 -96,-257c-83,-88 -180,-135 -291,-139c-122,3 -223,46 -302,130z" class="fil1"/>
    <path id="svg_30" d="m3786.020248,1060.771261c-32,-51 -51,-100 -57,-145c195,-16 292,-23 292,-23c17,35 47,55 91,59c32,-1 65,2 99,10c68,15 131,49 186,100c56,58 91,117 105,177c29,121 9,230 -59,329c-69,93 -158,147 -267,162c-92,11 -173,-3 -243,-42c-134,-80 -203,-195 -207,-346c191,1 287,1 287,1c7,64 44,98 108,104c62,-8 97,-40 104,-96c4,-43 -13,-76 -52,-98c-10,-6 -22,-10 -35,-12c-8,0 -14,-1 -19,-1c-47,0 -88,-6 -123,-18c-97,-37 -167,-90 -210,-161z" class="fil2"/>
   </g>
   <rect x="1270.784659" y="-554.661273" id="svg_31" height="50" width="742.425" transform="matrix(-1.52846e-14,-2.04616,-0.414704,3.89411e-14,4837.96,4459.28) " class="fil0"/>
   <rect x="3353.182521" y="-172.306265" id="svg_32" height="50" width="742.425" transform="matrix(-4.92018e-14,-0.775451,-1.33495,1.47579e-14,4883.98,3515.87) " class="fil0"/>
   <g id="_1482564248">
    <path id="svg_33" d="m11065.020248,2483.771261c-3,1 -5,2 -6,2c-2,1 -4,1 -6,1c-4,0 -7,-1 -9,-3c-2,-2 -4,-4 -5,-8l0,0c-3,4 -6,7 -10,8c-4,2 -8,3 -13,3c-5,0 -10,-1 -13,-5c-4,-3 -6,-8 -6,-13c0,-3 1,-5 2,-7c0,-3 2,-5 3,-6c1,-2 3,-3 5,-4c2,-2 4,-3 5,-3c3,-1 7,-3 14,-5c6,-2 11,-4 13,-5l0,-8c0,0 0,-1 0,-3c0,-2 -1,-4 -2,-5c-1,-2 -2,-4 -4,-5c-2,-2 -4,-2 -8,-2c-2,0 -4,0 -6,1c-2,1 -3,2 -4,2c0,1 0,3 1,5c0,2 1,3 1,5c0,2 -1,3 -3,5c-1,1 -3,2 -6,2c-2,0 -4,-1 -5,-3c-1,-1 -2,-3 -2,-6c0,-2 1,-4 2,-6c2,-2 4,-4 6,-6c3,-1 5,-2 8,-3c3,-1 6,-2 9,-2c4,0 8,1 11,1c3,1 6,2 8,4c3,2 5,4 6,7c1,3 2,8 2,12c0,7 0,14 0,19c-1,6 -1,12 -1,18c0,2 1,4 1,5c1,1 2,2 3,3c1,0 2,0 4,0c1,0 3,0 5,0l0,5zm-26,-39c-4,1 -7,2 -10,4c-4,1 -6,2 -9,4c-3,2 -4,4 -6,6c-1,2 -2,5 -2,8c0,4 1,7 3,9c2,2 5,3 8,3c4,0 7,-1 9,-2c3,-2 5,-4 7,-6l0,-26zm88,-23c0,2 -1,5 -2,7c-1,2 -3,2 -6,2c-3,0 -5,0 -6,-2c-1,-1 -2,-3 -2,-4c0,-1 0,-2 0,-3c0,-1 0,-2 1,-3c-3,0 -5,1 -8,3c-4,2 -6,4 -8,8l0,42c0,2 0,3 1,4c0,2 1,2 3,3c1,0 3,1 5,1c1,0 3,0 4,1l0,4l-37,0l0,-4c1,-1 2,-1 3,-1c1,0 2,0 3,0c2,-1 3,-2 3,-3c1,-1 1,-2 1,-4l0,-45c0,-2 0,-3 -1,-5c0,-1 -1,-2 -3,-3c-1,-1 -2,-1 -3,-1c-1,-1 -3,-1 -4,-1l0,-5l24,-1l1,1l0,10l0,0c3,-4 6,-7 10,-9c4,-2 7,-3 10,-3c3,0 6,1 8,3c2,2 3,4 3,8zm40,63l-34,0l0,-4c1,-1 2,-1 3,-1c1,0 2,0 3,0c2,-1 3,-2 3,-3c1,-1 1,-2 1,-4l0,-45c0,-2 0,-3 -1,-4c0,-2 -1,-3 -3,-4c-1,0 -2,-1 -4,-1c-1,-1 -3,-1 -4,-1l0,-5l25,-1l1,1l0,59c0,2 0,3 1,4c0,2 1,2 3,3c1,0 2,1 3,1c1,0 2,0 3,1l0,4zm-9,-102c0,3 -1,5 -2,7c-2,2 -5,3 -7,3c-3,0 -5,-1 -7,-3c-1,-2 -2,-4 -2,-7c0,-2 1,-5 2,-7c2,-2 4,-3 7,-3c3,0 5,1 7,3c1,2 2,4 2,7zm86,101c-2,1 -4,2 -6,2c-2,1 -4,1 -6,1c-4,0 -7,-1 -9,-3c-2,-2 -4,-4 -4,-8l-1,0c-3,4 -6,7 -10,8c-3,2 -8,3 -13,3c-5,0 -10,-1 -13,-5c-4,-3 -5,-8 -5,-13c0,-3 0,-5 1,-7c1,-3 2,-5 3,-6c2,-2 3,-3 5,-4c2,-2 4,-3 6,-3c2,-1 6,-3 13,-5c7,-2 11,-4 13,-5l0,-8c0,0 0,-1 0,-3c0,-2 -1,-4 -2,-5c-1,-2 -2,-4 -4,-5c-1,-2 -4,-2 -7,-2c-2,0 -5,0 -6,1c-2,1 -4,2 -4,2c0,1 0,3 0,5c1,2 1,3 1,5c0,2 -1,3 -2,5c-2,1 -4,2 -7,2c-2,0 -4,-1 -5,-3c-1,-1 -2,-3 -2,-6c0,-2 1,-4 3,-6c1,-2 3,-4 6,-6c2,-1 5,-2 8,-3c3,-1 6,-2 9,-2c4,0 7,1 10,1c3,1 6,2 9,4c2,2 4,4 5,7c1,3 2,8 2,12c0,7 0,14 0,19c0,6 0,12 0,18c0,2 0,4 1,5c0,1 1,2 3,3c0,0 2,0 3,0c2,0 3,0 5,0l0,5zm-25,-39c-4,1 -8,2 -11,4c-3,1 -6,2 -9,4c-2,2 -4,4 -6,6c-1,2 -2,5 -2,8c0,4 1,7 4,9c2,2 4,3 8,3c3,0 6,-1 9,-2c2,-2 4,-4 6,-6l1,-26zm67,40l-35,0l0,-4c1,-1 2,-1 4,-1c1,0 2,0 3,0c1,-1 2,-2 3,-3c0,-1 1,-2 1,-4l0,-45c0,-2 -1,-3 -1,-4c-1,-2 -2,-3 -3,-4c-1,0 -3,-1 -4,-1c-2,-1 -4,-1 -5,-1l0,-5l25,-1l1,1l0,59c0,2 1,3 1,4c1,2 2,2 3,3c1,0 2,1 3,1c1,0 3,0 4,1l0,4zm-9,-102c0,3 -1,5 -3,7c-2,2 -4,3 -7,3c-2,0 -4,-1 -6,-3c-2,-2 -3,-4 -3,-7c0,-2 1,-5 3,-7c2,-2 4,-3 6,-3c3,0 5,1 7,3c2,2 3,4 3,7zm65,67c2,1 3,3 4,6c1,2 2,5 2,8c0,7 -2,13 -7,17c-5,4 -12,6 -20,6c-4,0 -8,0 -11,-2c-4,-1 -6,-3 -8,-4l-1,5l-6,0l0,-26l5,0c0,2 1,4 2,7c1,3 3,5 5,7c2,2 4,4 7,5c2,2 5,3 8,3c5,0 9,-1 11,-4c3,-2 4,-5 4,-9c0,-2 0,-4 -1,-5c-1,-2 -2,-3 -4,-4c-1,-1 -3,-2 -6,-3c-2,-1 -5,-2 -7,-3c-3,-1 -5,-2 -8,-3c-3,-1 -5,-2 -7,-4c-2,-2 -4,-4 -5,-6c-2,-3 -2,-6 -2,-9c0,-6 2,-11 6,-15c4,-5 10,-7 18,-7c2,0 5,1 8,2c3,0 5,1 7,2l2,-4l5,0l1,24l-5,0c-1,-5 -3,-10 -6,-13c-4,-3 -8,-5 -13,-5c-4,0 -7,1 -9,3c-2,2 -3,5 -3,7c0,3 0,5 1,6c1,1 2,3 3,4c2,1 3,2 6,3c2,0 5,1 8,2c3,2 6,3 9,4c3,1 5,3 7,5z" class="fil3"/>
    <path id="svg_34" d="m10030.020248,2151.771261c6,6 10,13 12,20c3,7 4,16 4,26c0,23 -8,42 -25,57c-17,15 -38,22 -62,22c-12,0 -23,-1 -35,-5c-11,-4 -21,-8 -29,-13l-8,13l-15,0l-2,-89l14,0c3,11 7,21 11,30c4,8 9,17 16,24c6,8 14,14 22,18c8,4 18,6 29,6c8,0 16,-1 22,-3c6,-2 11,-5 15,-9c4,-5 7,-9 9,-15c2,-5 2,-11 2,-19c0,-10 -2,-20 -8,-29c-6,-9 -15,-16 -26,-20c-8,-4 -17,-7 -27,-11c-10,-4 -19,-8 -26,-11c-15,-7 -26,-15 -34,-26c-8,-11 -12,-25 -12,-42c0,-10 2,-19 6,-28c4,-9 10,-16 17,-23c7,-6 15,-11 25,-15c9,-4 19,-6 30,-6c11,0 22,2 31,6c10,4 18,8 26,13l7,-13l15,0l1,87l-14,0c-3,-10 -6,-19 -9,-28c-4,-9 -8,-18 -13,-25c-6,-7 -12,-13 -19,-17c-8,-4 -17,-6 -28,-6c-11,0 -21,3 -29,11c-8,7 -12,16 -12,27c0,12 2,21 8,28c5,8 12,14 22,19c9,4 18,8 26,11c9,3 17,6 25,10c7,3 14,7 21,11c6,4 12,9 17,14zm202,77c-8,15 -18,26 -30,35c-13,8 -27,13 -43,13c-15,0 -27,-3 -38,-8c-11,-5 -20,-12 -27,-21c-7,-9 -12,-19 -15,-31c-4,-12 -5,-24 -5,-37c0,-12 1,-24 5,-35c4,-12 9,-22 16,-31c7,-9 16,-16 26,-21c10,-5 21,-8 34,-8c13,0 24,2 34,6c9,4 16,10 22,17c6,7 10,15 13,25c2,9 4,19 4,30l0,12l-118,0c0,12 1,23 3,33c2,10 6,18 10,25c5,8 11,13 19,17c7,4 17,7 27,7c11,0 20,-3 28,-8c8,-5 15,-14 22,-28l13,8zm-40,-69c0,-7 -1,-14 -2,-22c-1,-8 -3,-15 -5,-20c-3,-6 -7,-10 -12,-14c-4,-3 -11,-5 -18,-5c-13,0 -23,5 -32,16c-8,11 -13,26 -13,45l82,0zm197,-46c0,6 -1,11 -4,16c-3,5 -8,8 -14,8c-7,0 -12,-2 -16,-6c-3,-3 -5,-7 -5,-12c0,-2 0,-5 0,-7c1,-2 1,-4 2,-7c-6,0 -13,3 -20,7c-8,5 -14,12 -20,20l0,106c0,4 1,8 3,11c1,2 4,4 8,6c3,1 6,2 11,3c5,0 9,1 13,1l0,12l-94,0l0,-12c2,0 5,-1 8,-1c3,0 6,-1 8,-1c3,-1 6,-3 7,-6c2,-3 3,-7 3,-11l0,-112c0,-4 -1,-8 -3,-12c-2,-3 -4,-6 -7,-8c-2,-2 -5,-3 -8,-4c-3,0 -7,-1 -10,-1l0,-12l59,-4l2,3l0,25l1,0c8,-10 16,-17 25,-22c9,-6 18,-8 25,-8c8,0 14,2 19,7c5,5 7,12 7,21zm191,-13c-5,1 -10,3 -15,6c-5,3 -9,9 -13,16c-7,17 -14,34 -22,52c-7,18 -15,37 -23,56c-3,6 -5,13 -8,20c-3,8 -5,16 -8,23l-14,0c-11,-29 -22,-56 -31,-79c-10,-24 -20,-48 -30,-73c-3,-6 -7,-10 -12,-14c-5,-3 -11,-5 -16,-6l0,-12l82,0l0,13c-3,0 -8,1 -13,2c-6,2 -8,4 -8,6c0,1 0,2 0,3c1,2 2,3 2,5c5,13 12,30 21,53c9,22 17,41 22,54c5,-10 10,-23 17,-39c6,-16 13,-34 21,-53c1,-3 2,-6 3,-9c1,-3 2,-6 2,-9c0,-2 -1,-4 -3,-6c-2,-1 -4,-3 -7,-4c-3,-1 -6,-2 -8,-3c-3,0 -5,-1 -7,-1l0,-12l68,0l0,11zm167,128c-8,15 -18,26 -30,35c-13,8 -27,13 -44,13c-14,0 -27,-3 -37,-8c-11,-5 -20,-12 -27,-21c-7,-9 -12,-19 -16,-31c-3,-12 -5,-24 -5,-37c0,-12 2,-24 6,-35c3,-12 9,-22 16,-31c7,-9 15,-16 25,-21c11,-5 22,-8 35,-8c13,0 24,2 33,6c9,4 17,10 23,17c5,7 9,15 12,25c3,9 4,19 4,30l0,12l-118,0c0,12 1,23 3,33c3,10 6,18 11,25c5,8 11,13 18,17c8,4 17,7 28,7c10,0 20,-3 27,-8c8,-5 16,-14 23,-28l13,8zm-40,-69c0,-7 -1,-14 -2,-22c-1,-8 -3,-15 -6,-20c-2,-6 -6,-10 -11,-14c-5,-3 -11,-5 -19,-5c-12,0 -23,5 -31,16c-9,11 -13,26 -14,45l83,0zm144,112l-87,0l0,-12c2,0 5,-1 9,-1c3,0 5,-1 7,-1c4,-1 6,-3 8,-6c2,-3 2,-7 2,-11l0,-211c0,-4 0,-8 -2,-12c-2,-4 -5,-7 -8,-9c-2,-2 -6,-3 -12,-4c-5,-1 -10,-2 -14,-2l0,-12l68,-4l2,2l0,250c0,4 1,8 2,10c2,3 5,5 8,7c3,1 5,2 8,3c2,0 5,1 9,1l0,12zm196,-93c0,13 -2,26 -6,38c-4,12 -10,23 -17,31c-8,10 -18,18 -29,22c-11,5 -23,8 -37,8c-11,0 -22,-3 -32,-7c-11,-4 -20,-11 -28,-19c-7,-8 -14,-18 -18,-30c-5,-12 -7,-25 -7,-40c0,-29 8,-52 24,-70c16,-18 38,-27 64,-27c25,0 45,9 62,26c16,17 24,40 24,68zm-38,1c0,-10 0,-19 -2,-30c-2,-10 -5,-19 -8,-26c-4,-7 -9,-13 -16,-18c-6,-5 -14,-7 -23,-7c-9,0 -17,2 -23,7c-7,5 -12,11 -16,19c-4,8 -7,16 -8,26c-2,9 -3,19 -3,28c0,11 1,22 3,32c2,10 5,19 9,27c4,8 9,14 15,19c7,4 14,6 23,6c16,0 27,-7 36,-22c9,-15 13,-35 13,-61zm129,81c0,13 -2,26 -6,38c-4,12 -9,22 -16,29c-6,9 -14,15 -23,19c-8,5 -18,7 -28,7c-11,0 -19,-2 -25,-7c-5,-4 -8,-9 -8,-15c0,-5 2,-10 5,-14c3,-4 7,-6 12,-6c4,0 7,1 10,2c3,2 6,4 8,7c2,2 4,5 6,8c2,3 4,6 6,9c9,0 15,-5 19,-17c4,-11 6,-29 6,-54l0,-137c0,-4 -1,-7 -3,-11c-2,-4 -4,-7 -7,-9c-2,-1 -7,-3 -14,-4c-7,-1 -13,-2 -16,-3l0,-11l71,-4l3,3l0,170zm2,-245c0,7 -2,13 -6,18c-5,6 -11,8 -17,8c-6,0 -12,-2 -16,-7c-5,-5 -7,-11 -7,-17c0,-7 2,-13 7,-18c4,-5 10,-7 16,-7c7,0 12,2 17,7c4,4 6,10 6,16zm210,253c-6,2 -11,3 -15,5c-4,1 -9,2 -15,2c-9,0 -17,-3 -22,-7c-6,-5 -9,-11 -11,-20l-1,0c-8,9 -16,16 -25,21c-9,4 -20,7 -33,7c-13,0 -24,-5 -33,-13c-8,-8 -13,-19 -13,-33c0,-7 1,-13 3,-19c2,-5 5,-10 9,-15c3,-3 7,-6 12,-9c5,-3 9,-6 14,-7c5,-2 16,-6 33,-12c16,-6 27,-10 33,-13l0,-18c0,-2 0,-5 -1,-10c0,-4 -2,-8 -4,-13c-2,-4 -6,-8 -10,-11c-5,-4 -11,-6 -19,-6c-5,0 -11,1 -15,3c-5,2 -8,4 -10,6c0,3 0,6 1,11c1,5 2,9 2,14c0,4 -2,8 -6,11c-3,4 -9,6 -15,6c-6,0 -11,-3 -14,-7c-3,-4 -4,-9 -4,-15c0,-5 2,-11 6,-16c4,-5 9,-10 15,-14c6,-3 12,-6 20,-8c8,-3 15,-4 22,-4c11,0 19,1 27,2c8,2 14,5 20,9c7,5 11,11 14,19c4,8 5,18 5,30c0,18 0,33 0,47c-1,13 -1,28 -1,44c0,5 1,9 3,12c1,2 4,5 7,7c2,1 5,2 9,2c4,0 8,0 12,0l0,12zm-63,-98c-11,3 -20,6 -27,9c-8,3 -15,7 -22,11c-6,5 -11,10 -14,15c-4,6 -5,13 -5,21c0,10 2,17 8,22c5,5 11,7 19,7c9,0 17,-2 23,-6c7,-4 12,-9 17,-15l1,-64z" class="fil3"/>
    <path id="svg_35" d="m9942.020248,2436.771261c2,3 4,6 5,8c1,3 2,7 2,11c0,9 -4,17 -11,23c-6,6 -15,9 -25,9c-4,0 -9,-1 -13,-3c-5,-1 -9,-3 -12,-5l-3,6l-6,0l-1,-36l6,0c1,4 2,8 4,12c2,3 4,7 6,10c3,3 6,5 9,7c4,1 7,2 12,2c3,0 6,0 9,-1c2,-1 4,-2 6,-4c1,-2 2,-3 3,-6c1,-2 1,-4 1,-7c0,-4 -1,-8 -3,-12c-3,-4 -6,-6 -11,-8c-3,-1 -6,-3 -10,-4c-4,-2 -8,-3 -11,-5c-6,-2 -10,-6 -13,-10c-4,-5 -5,-10 -5,-17c0,-4 1,-8 2,-11c2,-4 4,-7 7,-10c3,-2 6,-4 10,-6c4,-1 8,-2 12,-2c5,0 9,1 13,2c3,2 7,4 10,6l3,-5l6,0l0,34l-6,0c-1,-4 -2,-7 -3,-11c-2,-4 -3,-7 -5,-10c-3,-3 -5,-5 -8,-7c-3,-2 -7,-2 -11,-2c-5,0 -9,1 -12,4c-3,3 -5,7 -5,11c0,5 1,8 3,11c2,3 5,6 9,8c4,2 7,3 11,4c3,2 7,3 10,4c3,2 5,3 8,5c3,1 5,3 7,5zm87,11c0,5 0,10 -2,15c-2,5 -4,10 -7,13c-3,4 -7,7 -12,9c-4,2 -9,3 -14,3c-5,0 -9,-1 -13,-3c-4,-2 -8,-4 -11,-8c-3,-3 -6,-7 -8,-12c-2,-4 -3,-10 -3,-16c0,-11 4,-20 10,-28c7,-7 15,-10 26,-10c10,0 18,3 25,10c6,7 9,16 9,27zm-15,0c0,-3 0,-7 -1,-11c-1,-4 -2,-8 -3,-11c-2,-3 -4,-5 -6,-7c-3,-2 -6,-3 -9,-3c-4,0 -7,1 -10,3c-3,2 -5,4 -6,8c-2,3 -3,6 -4,10c0,4 -1,7 -1,11c0,5 1,9 2,13c0,4 2,8 3,11c2,3 4,6 6,7c3,2 6,3 10,3c6,0 10,-3 14,-9c4,-6 5,-14 5,-25zm59,38l-35,0l0,-5c1,0 3,-1 4,-1c1,0 2,0 3,0c1,-1 2,-1 3,-3c1,-1 1,-2 1,-4l0,-84c0,-2 0,-4 -1,-5c-1,-2 -2,-3 -3,-4c-1,-1 -2,-1 -5,-2c-2,0 -4,0 -5,-1l0,-4l27,-2l1,1l0,100c0,2 0,3 0,4c1,2 2,2 4,3c1,1 2,1 3,1c1,0 2,1 3,1l0,5zm86,-2l-23,2l-1,-1l0,-9l-1,0c-1,1 -2,2 -4,3c-1,2 -3,3 -5,4c-2,2 -4,3 -6,3c-2,1 -5,1 -9,1c-6,0 -11,-2 -14,-6c-4,-4 -5,-10 -5,-18l0,-35c0,-2 -1,-4 -1,-5c-1,-1 -2,-2 -3,-3c-1,0 -2,-1 -3,-1c-2,0 -3,-1 -4,-1l0,-5l23,-1l1,1l0,50c0,6 2,10 4,12c2,3 5,4 8,4c3,0 5,0 7,-1c3,-1 4,-2 6,-3c1,-1 2,-2 3,-3c1,-1 2,-2 2,-3l0,-42c0,-1 0,-3 -1,-4c0,-1 -1,-2 -2,-3c-1,-1 -3,-1 -4,-1c-2,-1 -4,-1 -6,-1l0,-5l26,-1l1,1l0,58c0,1 0,3 1,4c1,1 2,2 3,3c1,1 2,1 3,1c1,0 2,0 4,0l0,5zm37,3c-9,-1 -16,-5 -21,-12c-5,-7 -7,-15 -7,-26c0,-5 0,-10 2,-15c2,-4 4,-8 7,-12c3,-3 6,-6 11,-8c4,-2 9,-3 14,-3c7,0 12,1 17,5c4,3 6,8 6,14c0,2 0,4 -1,6c-1,2 -3,3 -6,3c-3,0 -5,-1 -7,-2c-1,-2 -2,-3 -2,-5c0,-2 0,-5 1,-7c0,-2 1,-4 1,-5c-1,-2 -2,-3 -4,-3c-2,-1 -4,-1 -6,-1c-2,0 -4,1 -6,2c-2,1 -4,2 -6,5c-2,3 -4,6 -5,10c-1,4 -1,9 -1,15c0,9 2,17 6,23c4,5 9,8 15,8c5,0 9,-1 12,-3c3,-2 6,-6 9,-11l5,4c-4,5 -8,10 -13,13c-5,4 -10,5 -16,5l0,6c3,0 5,0 6,0c2,1 4,1 6,2c1,1 3,2 4,3c1,2 1,4 1,6c0,3 -1,5 -2,7c-2,2 -4,4 -7,5c-2,1 -5,1 -8,2c-4,0 -7,0 -12,0l0,-5c2,0 4,0 7,0c2,0 4,0 6,-1c2,0 3,-1 4,-2c1,-1 2,-2 2,-4c0,-1 -1,-2 -1,-3c-1,0 -2,-1 -3,-1c-1,-1 -3,-1 -4,-1c-2,0 -3,0 -4,0l0,-14zm109,-39c0,5 -1,10 -2,15c-2,5 -4,10 -7,13c-4,4 -8,7 -12,9c-4,2 -9,3 -15,3c-4,0 -9,-1 -13,-3c-4,-2 -7,-4 -11,-8c-3,-3 -5,-7 -7,-12c-2,-4 -3,-10 -3,-16c0,-11 3,-20 10,-28c6,-7 15,-10 25,-10c10,0 19,3 25,10c7,7 10,16 10,27zm-15,0c0,-3 0,-7 -1,-11c-1,-4 -2,-8 -3,-11c-2,-3 -4,-5 -7,-7c-2,-2 -5,-3 -9,-3c-3,0 -7,1 -9,3c-3,2 -5,4 -7,8c-1,3 -2,6 -3,10c-1,4 -1,7 -1,11c0,5 0,9 1,13c1,4 2,8 4,11c1,3 3,6 6,7c2,2 6,3 9,3c6,0 11,-3 15,-9c3,-6 5,-14 5,-25zm8,-71c0,2 -1,4 -2,6c-1,2 -2,4 -4,6c-2,2 -4,3 -5,4c-2,1 -5,2 -7,2c-3,0 -5,0 -8,-1c-2,-1 -3,-2 -5,-3c-2,-1 -3,-2 -5,-2c-1,-1 -3,-2 -5,-2c-1,0 -2,1 -3,1c-1,0 -2,1 -3,2c0,1 -1,2 -2,3c-1,2 -1,3 -2,4l-4,-1c0,-2 1,-4 2,-6c1,-2 3,-4 4,-6c1,-2 3,-3 5,-5c2,-1 5,-1 7,-1c3,0 5,0 7,1c2,1 4,2 5,2c2,1 4,2 5,3c1,1 3,1 5,1c1,0 3,0 4,0c1,-1 2,-2 3,-2c1,-1 1,-2 2,-3c0,-2 1,-3 2,-5l4,2zm81,91c-3,6 -7,11 -12,14c-5,4 -11,5 -18,5c-5,0 -10,-1 -15,-3c-4,-2 -8,-5 -10,-8c-3,-4 -5,-8 -7,-13c-1,-4 -2,-9 -2,-15c0,-4 1,-9 2,-13c2,-5 4,-9 7,-13c3,-3 6,-6 10,-8c4,-2 9,-3 14,-3c5,0 10,0 13,2c4,2 7,4 9,7c3,3 4,6 5,10c2,3 2,7 2,12l0,5l-47,0c0,5 0,9 1,13c1,4 2,7 4,10c2,3 5,5 8,7c3,1 6,2 11,2c4,0 8,-1 11,-3c3,-2 6,-6 9,-11l5,3zm-16,-27c0,-3 0,-6 -1,-9c0,-3 -1,-6 -2,-8c-1,-3 -3,-4 -5,-6c-2,-1 -4,-2 -7,-2c-5,0 -9,2 -13,7c-3,4 -5,10 -5,18l33,0zm71,9c2,2 4,4 5,6c1,2 2,5 2,8c0,7 -3,13 -8,17c-5,4 -11,6 -19,6c-4,0 -8,0 -12,-2c-3,-1 -6,-3 -7,-4l-2,5l-5,0l-1,-26l5,0c1,2 1,5 3,7c1,3 2,5 4,7c2,2 4,4 7,6c3,1 6,2 9,2c5,0 8,-1 11,-3c2,-3 3,-6 3,-10c0,-2 0,-4 -1,-5c-1,-2 -2,-3 -3,-4c-2,-1 -4,-2 -6,-3c-3,-1 -5,-2 -8,-3c-2,0 -5,-1 -8,-3c-2,-1 -5,-2 -7,-4c-2,-2 -4,-4 -5,-6c-1,-3 -2,-6 -2,-9c0,-6 2,-11 7,-15c4,-4 10,-6 17,-6c3,0 6,0 9,1c3,0 5,1 7,2l1,-4l6,0l1,24l-5,0c-1,-5 -3,-10 -7,-13c-3,-3 -7,-5 -12,-5c-4,0 -7,1 -9,3c-3,2 -4,5 -4,8c0,2 1,4 1,5c1,2 2,3 4,4c1,1 3,2 5,3c2,1 5,2 8,3c4,1 7,2 9,3c3,2 6,3 7,5zm142,5l-2,31l-86,0l0,-6c2,0 4,0 6,0c2,-1 4,-1 5,-1c1,-1 2,-2 3,-3c1,-1 1,-3 1,-5l0,-75c0,-2 0,-3 -1,-5c0,-1 -2,-2 -3,-3c-2,0 -3,-1 -6,-1c-2,-1 -4,-1 -5,-1l0,-5l80,0l0,25l-6,0c-1,-4 -3,-8 -6,-12c-3,-4 -6,-7 -9,-7c-2,0 -3,0 -5,0c-2,-1 -5,-1 -8,-1l-16,0l0,42l12,0c4,0 6,0 8,-1c2,-1 3,-2 5,-4c1,-1 2,-3 2,-5c1,-3 2,-5 2,-7l5,0l0,41l-5,0c0,-2 -1,-5 -2,-8c-1,-2 -1,-4 -2,-5c-2,-2 -4,-3 -6,-4c-1,-1 -4,-1 -7,-1l-12,0l0,32c0,3 1,5 1,7c0,2 1,3 2,4c2,1 3,2 6,2c2,0 5,0 9,0c2,0 4,0 6,0c3,0 5,0 7,0c2,0 4,0 6,-1c1,0 3,-1 4,-2c2,-2 4,-6 7,-11c2,-5 4,-8 4,-10l6,0zm131,31l-35,0l0,-5c1,0 2,-1 3,-1c1,0 2,0 3,0c2,-1 3,-1 3,-3c1,-1 1,-2 1,-4l0,-38c0,-5 -1,-9 -3,-11c-2,-3 -5,-5 -9,-5c-2,0 -4,1 -6,2c-3,0 -4,1 -6,3c-2,1 -3,2 -4,3c-1,1 -1,2 -2,3l0,42c0,2 0,3 1,5c1,1 2,2 3,2c1,1 2,1 3,1c1,0 2,1 4,1l0,5l-35,0l0,-5c1,0 3,-1 4,-1c1,0 2,0 2,0c2,-1 3,-1 3,-3c1,-1 1,-2 1,-4l0,-38c0,-5 -1,-9 -3,-11c-2,-3 -5,-5 -9,-5c-2,0 -4,1 -6,2c-2,0 -4,1 -6,3c-1,1 -3,2 -4,3c-1,2 -1,3 -2,3l0,42c0,2 1,3 1,4c1,2 2,2 3,3c1,1 2,1 3,1c2,0 3,1 4,1l0,5l-35,0l0,-5c1,0 3,-1 4,-1c1,0 2,0 3,0c1,-1 2,-1 3,-3c0,-1 1,-2 1,-4l0,-45c0,-2 -1,-3 -1,-5c-1,-1 -2,-2 -3,-3c-1,0 -2,-1 -4,-1c-1,-1 -2,-1 -4,-1l0,-5l24,-1l1,1l0,10l1,0c1,-1 2,-3 4,-4c2,-2 3,-3 5,-4c2,-1 4,-2 6,-3c3,-1 6,-1 9,-1c4,0 8,1 11,3c4,3 6,6 8,10c1,-2 3,-4 4,-5c2,-1 3,-3 6,-4c1,-1 4,-2 6,-3c3,-1 5,-1 8,-1c6,0 11,2 15,6c3,4 5,10 5,18l0,37c0,2 0,3 1,5c0,1 1,2 3,2c1,1 2,1 3,1c1,0 2,1 4,1l0,5zm74,-65c2,4 5,8 6,12c2,5 3,10 3,16c0,6 -1,11 -3,16c-2,4 -5,9 -8,12c-3,3 -7,6 -11,8c-4,2 -8,2 -12,2c-5,0 -8,0 -11,-1c-3,-1 -5,-2 -7,-4l0,0l0,22c0,2 0,4 1,5c1,1 2,2 3,2c1,1 3,1 5,2c2,0 4,0 5,0l0,5l-40,0l0,-5c2,0 3,0 5,0c1,0 2,0 3,-1c2,0 3,-1 4,-2c0,-2 0,-3 0,-5l0,-77c0,-2 0,-3 -1,-5c0,-1 -1,-2 -3,-3c0,0 -2,-1 -3,-1c-2,-1 -3,-1 -5,-1l0,-5l25,-1l1,1l0,8l0,0c3,-3 6,-5 10,-7c3,-2 7,-3 11,-3c4,0 8,1 12,2c4,2 7,5 10,8zm-12,53c2,-3 3,-7 4,-11c1,-4 1,-9 1,-14c0,-3 0,-7 -1,-11c-1,-3 -2,-7 -3,-10c-2,-2 -4,-5 -7,-7c-3,-1 -6,-2 -9,-2c-4,0 -7,1 -10,2c-2,2 -4,4 -6,6l0,43c0,1 1,3 2,4c1,2 2,3 3,4c2,1 3,2 5,3c2,1 4,1 7,1c2,0 5,-1 7,-2c3,-2 5,-4 7,-6zm86,-52c0,2 -1,5 -2,7c-1,2 -3,3 -6,3c-2,0 -4,-1 -6,-3c-1,-1 -2,-3 -2,-4c0,-1 0,-2 0,-3c1,-1 1,-2 1,-3c-2,0 -5,1 -8,3c-3,2 -6,4 -8,8l0,42c0,2 0,3 1,5c1,1 2,1 3,2c1,1 3,1 5,1c2,0 3,1 5,1l0,5l-38,0l0,-5c1,0 2,-1 4,-1c1,0 2,0 3,0c1,-1 2,-1 3,-3c0,-1 1,-2 1,-4l0,-45c0,-1 -1,-3 -1,-4c-1,-2 -2,-3 -3,-4c-1,-1 -2,-1 -4,-1c-1,-1 -2,-1 -4,-1l0,-5l24,-1l1,1l0,10l0,0c3,-4 7,-7 10,-9c4,-2 8,-3 11,-3c3,0 5,1 7,3c2,2 3,5 3,8zm70,46c-3,6 -8,11 -13,14c-5,4 -10,5 -17,5c-6,0 -11,-1 -15,-3c-4,-2 -8,-5 -11,-8c-3,-4 -5,-8 -6,-13c-1,-4 -2,-9 -2,-15c0,-4 1,-9 2,-13c2,-5 4,-9 7,-13c2,-3 6,-6 10,-8c4,-2 9,-3 14,-3c5,0 9,0 13,2c4,2 7,4 9,7c2,3 4,6 5,10c1,3 2,7 2,12l0,5l-48,0c0,5 1,9 2,13c1,4 2,7 4,10c2,3 4,5 7,7c3,1 7,2 11,2c5,0 8,-1 11,-3c4,-2 7,-6 9,-11l6,3zm-17,-27c0,-3 0,-6 0,-9c-1,-3 -1,-6 -2,-8c-2,-3 -3,-4 -5,-6c-2,-1 -4,-2 -7,-2c-6,0 -10,2 -13,7c-4,4 -5,10 -6,18l33,0zm72,9c2,2 4,4 5,6c1,2 1,5 1,8c0,7 -2,13 -7,17c-5,4 -12,6 -20,6c-4,0 -8,0 -11,-2c-4,-1 -6,-3 -8,-4l-1,5l-5,0l-1,-26l5,0c0,2 1,5 2,7c2,3 3,5 5,7c2,2 4,4 7,6c2,1 5,2 9,2c4,0 8,-1 10,-3c3,-3 4,-6 4,-10c0,-2 0,-4 -1,-5c-1,-2 -2,-3 -4,-4c-1,-1 -3,-2 -6,-3c-2,-1 -4,-2 -7,-3c-3,0 -5,-1 -8,-3c-3,-1 -5,-2 -7,-4c-2,-2 -4,-4 -5,-6c-2,-3 -2,-6 -2,-9c0,-6 2,-11 6,-15c5,-4 10,-6 18,-6c3,0 5,0 8,1c3,0 6,1 8,2l1,-4l5,0l1,24l-5,0c-1,-5 -3,-10 -6,-13c-3,-3 -8,-5 -12,-5c-4,0 -7,1 -10,3c-2,2 -3,5 -3,8c0,2 0,4 1,5c1,2 2,3 3,4c2,1 4,2 6,3c2,1 5,2 8,3c3,1 6,2 9,3c3,2 5,3 7,5z" class="fil3"/>
    <path id="svg_36" d="m9441.020248,1887.771261c197,-22 374,122 396,323c22,200 -120,381 -317,403c-197,22 -374,-122 -396,-323c-21,-200 121,-381 317,-403z" class="fil1"/>
    <g id="svg_37" clip-path="url(#id0)">
     <g id="svg_38">
      <path mask="url(#id1)" d="m9658.020248,1524.771261c80,-104 262,-98 382,-2c120,96 168,278 89,381c-80,104 -256,90 -377,-6c-120,-96 -173,-270 -94,-373z" class="fil4" id="1"/>
     </g>
    </g>
    <path id="svg_39" d="m9441.020248,1887.771261c197,-22 374,122 396,323c22,200 -120,381 -317,403c-197,22 -374,-122 -396,-323c-21,-200 121,-381 317,-403z" class="fil5"/>
    <path id="svg_40" d="m9760.020248,1974.771261c0,5 -1,11 -2,19c-2,8 -5,19 -9,31c-13,38 -28,84 -46,136c-18,52 -39,115 -62,188l-31,0c9,-63 18,-135 28,-216c10,-82 16,-130 19,-144c3,-16 11,-29 23,-39c12,-10 25,-15 40,-15c13,0 23,3 29,11c8,7 11,17 11,29zm-102,502c0,15 -5,28 -16,38c-11,11 -23,16 -38,16c-15,0 -28,-5 -38,-16c-11,-10 -17,-23 -17,-38c0,-15 6,-28 17,-39c10,-11 23,-17 38,-17c15,0 27,6 38,17c11,11 16,24 16,39z" class="fil6"/>
    <path id="svg_41" d="m9392.020248,2460.771261c-25,0 -47,-3 -66,-10c-19,-6 -34,-13 -46,-22l-17,23l-24,0l30,-151l24,0c1,18 4,35 7,51c4,15 10,30 19,42c8,13 20,23 33,31c14,7 31,10 51,10c30,0 54,-8 73,-25c18,-18 27,-41 27,-71c0,-16 -4,-30 -11,-42c-8,-13 -20,-22 -35,-29c-15,-7 -29,-12 -44,-17c-14,-6 -28,-12 -42,-18c-18,-9 -33,-22 -44,-39c-11,-17 -17,-35 -17,-56c0,-20 4,-39 13,-55c9,-17 20,-32 34,-44c14,-12 31,-21 51,-28c19,-7 39,-11 58,-11c18,0 35,2 52,7c16,4 32,12 48,24l17,-21l24,0l-30,147l-25,0c-1,-16 -2,-33 -5,-50c-2,-17 -7,-31 -13,-42c-7,-12 -16,-22 -28,-29c-12,-7 -28,-10 -48,-10c-24,0 -44,8 -60,25c-17,17 -25,37 -25,60c0,16 3,29 9,39c6,11 16,20 28,26c14,7 28,13 42,19c15,5 28,10 40,15c23,12 42,25 55,41c13,16 20,35 20,58c0,22 -5,42 -15,61c-9,20 -21,36 -37,49c-17,13 -35,24 -56,31c-20,7 -42,11 -67,11z" class="fil6"/>
   </g>
  </g>
 </g>
</svg>